<svg width="21" height="20" viewBox="0 0 21 20" fill="none" xmlns="http://www.w3.org/2000/svg">
<path fill-rule="evenodd" clip-rule="evenodd" d="M20.5 3.57105C20.5 3.24983 20.2514 2.98999 19.9453 2.98999H17.0394V0.827072C17.0394 0.370218 16.6842 -0.000976562 16.247 -0.000976562H1.2924C0.855216 -0.000976562 0.5 0.370218 0.5 0.827072V3.55963V3.56963V5.72541C1.32383 4.72461 2.54522 4.09073 3.90734 4.09073C4.49208 4.09073 5.05086 4.20779 5.56455 4.41909C7.22587 5.10865 8.40218 6.80473 8.40218 8.78776C8.40218 10.7708 7.22587 12.4669 5.56455 13.1564C5.22027 13.2978 4.85412 13.3963 4.47432 13.4462V14.6241C4.66012 14.7126 4.82953 14.8368 4.97162 14.9867C5.28311 15.3094 5.47438 15.7576 5.47438 16.2516V19.2569H19.9453C20.2514 19.2569 20.5 18.997 20.5 18.6772V13.4562H16.4724C15.639 13.4562 14.9627 12.7495 14.9627 11.8787V9.01904C14.9627 8.14674 15.639 7.44004 16.4724 7.44004H20.5V3.57105ZM15.542 2.98999H1.99737V1.56375H15.542V2.98999ZM3.85952 12.2998C5.71484 12.2998 7.21904 10.7279 7.21904 8.78911C7.21904 6.85034 5.71484 5.27847 3.85952 5.27847C2.0042 5.27847 0.5 6.85034 0.5 8.78911C0.5 10.7279 2.0042 12.2998 3.85952 12.2998ZM3.85952 6.45344V7.54989C3.22013 7.54989 2.69824 8.07956 2.67501 8.74057H1.62576C1.65035 7.47566 2.64222 6.45344 3.85952 6.45344ZM16.0216 9.40887V11.6746C16.0216 12.0172 16.288 12.2956 16.6159 12.2956H20.4372V8.78784H16.6159C16.288 8.78784 16.0216 9.06623 16.0216 9.40887ZM17.1706 9.92284H18.3031V11.1235H17.1706V9.92284ZM3.12863 16.0974C3.12863 15.7262 3.4169 15.425 3.77211 15.425C4.12733 15.425 4.4156 15.7262 4.4156 16.0974V19.2582H3.12863V16.0974ZM0.5 11.8515C1.18994 12.6896 2.15995 13.2692 3.25839 13.4362V14.5413C2.55615 14.7654 2.04655 15.4478 2.04655 16.253V19.2583H1.05605C0.748651 19.2583 0.5 18.9984 0.5 18.6786V11.8515Z" fill="url(#paint0_linear_272_90)"/>
<defs>
<linearGradient id="paint0_linear_272_90" x1="0.5" y1="9.62865" x2="20.5" y2="9.62865" gradientUnits="userSpaceOnUse">
<stop stop-color="#C5C83E"/>
<stop offset="1" stop-color="#799F46"/>
</linearGradient>
</defs>
</svg>
