<svg width="21" height="20" viewBox="0 0 21 20" fill="none" xmlns="http://www.w3.org/2000/svg">
<path d="M19.9004 3.39772C20.1656 3.39772 20.42 3.51708 20.6075 3.72953C20.795 3.94199 20.9004 4.23015 20.9004 4.53061C20.9004 4.83108 20.795 5.11923 20.6075 5.33169C20.42 5.54415 20.1656 5.66351 19.9004 5.66351V16.9925C20.1656 16.9925 20.42 17.1118 20.6075 17.3243C20.795 17.5368 20.9004 17.8249 20.9004 18.1254C20.9004 18.4258 20.795 18.714 20.6075 18.9265C20.42 19.1389 20.1656 19.2583 19.9004 19.2583H1.90039C1.63517 19.2583 1.38082 19.1389 1.19328 18.9265C1.00575 18.714 0.900391 18.4258 0.900391 18.1254C0.900391 17.8249 1.00575 17.5368 1.19328 17.3243C1.38082 17.1118 1.63517 16.9925 1.90039 16.9925V5.66351C1.63517 5.66351 1.38082 5.54415 1.19328 5.33169C1.00575 5.11923 0.900391 4.83108 0.900391 4.53061C0.900391 4.23015 1.00575 3.94199 1.19328 3.72953C1.38082 3.51708 1.63517 3.39772 1.90039 3.39772H19.9004ZM5.90039 7.92931C5.63517 7.92931 5.38082 8.04867 5.19328 8.26113C5.00575 8.47359 4.90039 8.76174 4.90039 9.06221V16.9925H6.90039V9.06221C6.90039 8.76174 6.79503 8.47359 6.6075 8.26113C6.41996 8.04867 6.16561 7.92931 5.90039 7.92931ZM10.9004 7.92931C10.6352 7.92931 10.3808 8.04867 10.1933 8.26113C10.0057 8.47359 9.90039 8.76174 9.90039 9.06221V16.9925H11.9004V9.06221C11.9004 8.76174 11.795 8.47359 11.6075 8.26113C11.42 8.04867 11.1656 7.92931 10.9004 7.92931ZM15.9004 7.92931C15.6352 7.92931 15.3808 8.04867 15.1933 8.26113C15.0057 8.47359 14.9004 8.76174 14.9004 9.06221V16.9925H16.9004V9.06221C16.9004 8.76174 16.795 8.47359 16.6075 8.26113C16.42 8.04867 16.1656 7.92931 15.9004 7.92931ZM16.9004 -0.000976562C17.1656 -0.000976562 17.42 0.118382 17.6075 0.330842C17.795 0.543301 17.9004 0.831458 17.9004 1.13192C17.9004 1.43238 17.795 1.72054 17.6075 1.933C17.42 2.14546 17.1656 2.26482 16.9004 2.26482H4.90039C4.63517 2.26482 4.38082 2.14546 4.19328 1.933C4.00575 1.72054 3.90039 1.43238 3.90039 1.13192C3.90039 0.831458 4.00575 0.543301 4.19328 0.330842C4.38082 0.118382 4.63517 -0.000976563 4.90039 -0.000976562H16.9004Z" fill="#80868B"/>
</svg>
