<svg width="13" height="12" viewBox="0 0 13 12" fill="none" xmlns="http://www.w3.org/2000/svg">
<path d="M4.33825 7.09851V7.8868C4.54347 7.92254 4.70572 8.09434 4.74189 8.31342H5.45462C5.46823 8.23232 5.49903 8.15776 5.54273 8.09396L4.53559 7.01318C4.47757 7.05585 4.41024 7.08582 4.33789 7.09812L4.33825 7.09851Z" fill="#202124"/>
<path d="M8.70713 3.6286H12.5V2.37986C12.5 2.08276 12.2758 1.84178 11.9986 1.84178H10.3274V0.853245C10.3274 0.382038 9.97178 0 9.53268 0H1.00285C0.724922 0 0.5 0.241368 0.5 0.53962V11.4446C0.5 11.7425 0.724922 11.9842 1.00285 11.9842H3.05616C3.09376 11.9942 3.13316 12 3.17399 12H11.9986C12.2758 12 12.5 11.759 12.5 11.4619V6.54846H8.70713C7.95572 6.54846 7.3465 5.89469 7.3465 5.08834C7.3465 4.68516 7.49872 4.32042 7.74513 4.05599C7.99154 3.79156 8.33143 3.6286 8.70713 3.6286ZM5.93644 8.93255C5.68681 8.93255 5.48123 8.73192 5.45043 8.47287H4.7445C4.71692 8.70386 4.55038 8.88758 4.33728 8.92486V9.68817C4.57044 9.72891 4.7488 9.9453 4.7488 10.207C4.7488 10.498 4.52925 10.7336 4.25813 10.7336C3.987 10.7336 3.76745 10.498 3.76745 10.207C3.76745 10.0913 3.80219 9.98527 3.86057 9.89879L2.86705 8.83262C2.78611 8.89565 2.6869 8.93255 2.57945 8.93255C2.30869 8.93255 2.08878 8.69656 2.08878 8.406C2.08878 8.11543 2.30869 7.87944 2.57945 7.87944C2.82121 7.87944 3.02141 8.06662 3.06224 8.31337H3.77497C3.81186 8.09083 3.97876 7.91711 4.18864 7.88521V7.09999C3.95047 7.06387 3.76745 6.84479 3.76745 6.57921C3.76745 6.28826 3.987 6.05266 4.25813 6.05266C4.52925 6.05266 4.7488 6.28826 4.7488 6.57921C4.7488 6.70181 4.7094 6.81443 4.6435 6.90398L5.64741 7.98091C5.72835 7.91711 5.82828 7.87944 5.93644 7.87944C6.20757 7.87944 6.42747 8.11505 6.42747 8.406C6.42747 8.69695 6.20757 8.93255 5.93644 8.93255ZM1.77826 1.84178C1.54331 1.84178 1.35277 1.63731 1.35277 1.38518C1.35277 1.25911 1.4004 1.14496 1.47741 1.06233C1.55441 0.979694 1.66078 0.928576 1.77826 0.928576H9.06959C9.30454 0.928576 9.49508 1.13305 9.49508 1.38518V1.84178H1.77826Z" fill="#202124"/>
<path d="M3.77206 8.47266H3.06613C3.05503 8.56451 3.02208 8.64945 2.97266 8.72017L3.96511 9.78519C4.02921 9.73369 4.10586 9.69871 4.18895 9.68603V8.92618C3.97155 8.89313 3.8 8.70711 3.77206 8.47266Z" fill="#202124"/>
</svg>
