<svg width="45" height="46" viewBox="0 0 45 46" fill="none" xmlns="http://www.w3.org/2000/svg">
<rect x="0.15" y="0.65" width="44.7" height="44.7" rx="22.35" fill="#799F46"/>
<rect x="0.15" y="0.65" width="44.7" height="44.7" rx="22.35" stroke="#EAFAD6" stroke-width="0.3"/>
<path d="M14.9095 15.409H18.7144V13.5112H13.0117V19.2045H14.9095V15.409ZM14.9095 26.7954H13.0117V32.4886H18.7144V30.5909H14.9095V26.7954ZM30.0914 30.5909H26.2959V32.4886H31.9891V26.7954H30.0914V30.5909ZM26.2959 15.409H30.0914V19.2045H31.9891V13.5112H26.2959V15.409Z" fill="#DAE3CE"/>
<path d="M15.8574 22.0509H21.5506V16.3577H15.8574V22.0509ZM17.7552 18.2554H19.6529V20.1531H17.7552V18.2554ZM15.8574 29.6418H21.5506V23.9486H15.8574V29.6418ZM17.7552 25.8464H19.6529V27.7441H17.7552V25.8464ZM29.1416 16.3577H23.4484V22.0509H29.1416V16.3577ZM27.2439 20.1531H25.3461V18.2554H27.2439V20.1531ZM23.4579 23.9486H25.3556V25.8464H23.4579V23.9486ZM25.3556 25.8464H27.2534V27.7441H25.3556V25.8464ZM27.2534 27.7441H29.1511V29.6418H27.2534V27.7441ZM27.2534 23.9486H29.1511V25.8464H27.2534V23.9486Z" fill="#DAE3CE"/>
</svg>
