<svg width="121" height="122" viewBox="0 0 121 122" fill="none" xmlns="http://www.w3.org/2000/svg">
<g clip-path="url(#clip0_1009_13192)">
<path fill-rule="evenodd" clip-rule="evenodd" d="M0 61C0 44.8218 6.37409 29.3062 17.72 17.8665C29.066 6.42677 44.4544 0 60.5 0C76.5456 0 91.934 6.42677 103.28 17.8665C114.626 29.3062 121 44.8218 121 61C121 77.1782 114.626 92.6938 103.28 104.134C91.934 115.573 76.5456 122 60.5 122C44.4544 122 29.066 115.573 17.72 104.134C6.37409 92.6938 0 77.1782 0 61ZM57.0475 87.108L91.8793 43.2043L85.5873 38.1291L55.8859 75.5505L34.848 57.8768L29.6853 64.1232L57.0475 87.108Z" fill="#799F46"/>
</g>
<defs>
<clipPath id="clip0_1009_13192">
<rect width="121" height="122" fill="white"/>
</clipPath>
</defs>
</svg>
