<svg width="15" height="15" viewBox="0 0 15 15" fill="none" xmlns="http://www.w3.org/2000/svg">
<path d="M6.38159 12.4735C7.70996 12.4732 9.00004 12.0285 10.0464 11.2103L13.3363 14.5L14.3945 13.4418L11.1046 10.1521C11.9234 9.10569 12.3683 7.81538 12.3687 6.48674C12.3687 3.1858 9.68271 0.5 6.38159 0.5C3.08048 0.5 0.394531 3.1858 0.394531 6.48674C0.394531 9.78768 3.08048 12.4735 6.38159 12.4735ZM6.38159 1.99669C8.85799 1.99669 10.8719 4.01048 10.8719 6.48674C10.8719 8.96301 8.85799 10.9768 6.38159 10.9768C3.9052 10.9768 1.8913 8.96301 1.8913 6.48674C1.8913 4.01048 3.9052 1.99669 6.38159 1.99669Z" fill="#727350"/>
</svg>
