<svg width="20" height="21" viewBox="0 0 20 21" fill="none" xmlns="http://www.w3.org/2000/svg">
<rect y="0.5" width="20" height="20" rx="2" fill="#799F46"/>
<path d="M5.32167 5.82265H7.66618V4.65332H4.15234V8.16131H5.32167V5.82265ZM5.32167 12.8386H4.15234V16.3466H7.66618V15.1773H5.32167V12.8386ZM14.6763 15.1773H12.3377V16.3466H15.8456V12.8386H14.6763V15.1773ZM12.3377 5.82265H14.6763V8.16131H15.8456V4.65332H12.3377V5.82265Z" fill="#C8E4A4"/>
<path d="M5.90625 9.91522H9.41424V6.40723H5.90625V9.91522ZM7.07558 7.57656H8.24491V8.74589H7.07558V7.57656ZM5.90625 14.5925H9.41424V11.0845H5.90625V14.5925ZM7.07558 12.2539H8.24491V13.4232H7.07558V12.2539ZM14.0916 6.40723H10.5836V9.91522H14.0916V6.40723ZM12.9222 8.74589H11.7529V7.57656H12.9222V8.74589ZM10.5894 11.0845H11.7587V12.2539H10.5894V11.0845ZM11.7587 12.2539H12.9281V13.4232H11.7587V12.2539ZM12.9281 13.4232H14.0974V14.5925H12.9281V13.4232ZM12.9281 11.0845H14.0974V12.2539H12.9281V11.0845Z" fill="#C8E4A4"/>
</svg>
